<?xml version="1.0" encoding="UTF-8"?>
<svg id="Ebene_2" data-name="Ebene 2" xmlns="http://www.w3.org/2000/svg" xmlns:xlink="http://www.w3.org/1999/xlink" viewBox="0 0 6669.83 2361">
  <defs>
    <style>
      .cls-1 {
        fill: url(#Unbenannter_Verlauf_2);
      }

      .cls-1, .cls-2, .cls-3 {
        stroke-width: 0px;
      }

      .cls-2 {
        fill: #2b3440;
      }

      .cls-3 {
        fill: url(#Unbenannter_Verlauf_38);
      }
    </style>
    <linearGradient id="Unbenannter_Verlauf_2" data-name="Unbenannter Verlauf 2" x1="437.83" y1="1921.18" x2="2109.54" y2="253.94" gradientUnits="userSpaceOnUse">
      <stop offset=".01" stop-color="#570df8"/>
      <stop offset=".09" stop-color="#4b34eb"/>
      <stop offset=".19" stop-color="#3e5cdf"/>
      <stop offset=".29" stop-color="#347fd4"/>
      <stop offset=".4" stop-color="#2b9bcb"/>
      <stop offset=".52" stop-color="#25b1c4"/>
      <stop offset=".64" stop-color="#20c1bf"/>
      <stop offset=".79" stop-color="#1dcabc"/>
      <stop offset="1" stop-color="#1dcdbc"/>
    </linearGradient>
    <linearGradient id="Unbenannter_Verlauf_38" data-name="Unbenannter Verlauf 38" x1="982.15" y1="1488.64" x2="1572.82" y2="756.3" gradientUnits="userSpaceOnUse">
      <stop offset=".01" stop-color="#570df8"/>
      <stop offset=".09" stop-color="#4b34eb"/>
      <stop offset=".19" stop-color="#3e5cdf"/>
      <stop offset=".29" stop-color="#347fd4"/>
      <stop offset=".4" stop-color="#2b9bcb"/>
      <stop offset=".52" stop-color="#25b1c4"/>
      <stop offset=".64" stop-color="#20c1bf"/>
      <stop offset=".79" stop-color="#1dcabc"/>
      <stop offset="1" stop-color="#1dcdbc"/>
    </linearGradient>
  </defs>
  <g id="Ebene_1-2" data-name="Ebene 1">
    <g>
      <g>
        <path class="cls-1" d="m1180.5,0C528.53,0,0,528.53,0,1180.5s528.53,1180.5,1180.5,1180.5,1180.5-528.53,1180.5-1180.5S1832.47,0,1180.5,0Zm0,2065.88c-488.98,0-885.38-396.4-885.38-885.38s396.4-885.38,885.38-885.38,885.38,396.4,885.38,885.38-396.4,885.38-885.38,885.38Z"/>
        <path class="cls-3" d="m1175.47,608.89c91.34,0,167.47,10.38,228.38,31.13,60.91,20.75,109.69,50.48,146.39,89.21,36.67,38.75,62.61,85.77,77.86,141.09,15.21,55.34,22.84,116.88,22.84,184.65v643.16c-44.32,9.7-105.93,21.13-184.84,34.27-78.94,13.11-174.47,19.7-286.61,19.7-70.64,0-134.69-6.22-192.14-18.65-57.45-12.43-106.96-32.81-148.5-61.13-41.56-28.32-73.4-65.26-95.56-110.88-22.16-45.59-33.21-101.56-33.21-167.87s12.78-117.42,38.4-161.63c25.59-44.21,59.83-79.42,102.72-105.69,42.89-26.24,92.02-45.24,147.36-56.99,55.34-11.73,112.77-17.62,172.28-17.62,40.1,0,75.75,1.73,106.88,5.19s56.37,7.97,75.75,13.51v-29.1c0-52.67-15.92-94.93-47.7-126.82-31.81-31.89-87.12-47.83-165.93-47.83-52.53,0-104.39,3.81-155.55,11.43-51.18,7.62-95.42,18.32-132.74,32.16l-39.43-249.4c18-5.51,40.48-11.4,67.48-17.62,26.97-6.22,56.4-11.76,88.23-16.62,31.83-4.84,65.42-9,100.72-12.46,35.29-3.46,70.94-5.19,106.93-5.19Zm24.7,904.54c30.37,0,59.37-.68,86.99-2.08,27.62-1.38,49.7-3.46,66.29-6.22v-233.49c-12.43-2.76-31.08-5.54-55.94-8.3-24.86-2.76-47.64-4.16-68.34-4.16-29,0-56.26,1.73-81.8,5.16-25.56,3.46-47.99,10-67.32,19.65-19.35,9.65-34.54,22.73-45.56,39.27-11.05,16.54-16.57,37.21-16.57,62.02,0,48.24,16.21,81.67,48.67,100.26,32.43,18.59,76.96,27.89,133.58,27.89Z"/>
      </g>
      <g>
        <path class="cls-2" d="m2736.07,707.28h408.74v161.84h-408.74v497.94c0,53.96,4.13,98.56,12.43,133.83s20.74,62.94,37.35,83,37.35,34.25,62.26,42.55c24.89,8.3,53.93,12.43,87.13,12.43,58.08,0,104.79-6.55,140.06-19.71,35.27-13.13,59.81-22.46,73.67-28.02l37.32,159.77c-19.36,9.71-53.26,21.81-101.66,36.32-48.43,14.48-103.74,21.76-165.97,21.76-73.32,0-133.83-9.36-181.56-27.99-47.73-18.66-86.1-46.68-115.14-84.02-29.07-37.35-49.45-83.35-61.21-137.98s-17.64-117.92-17.64-189.86V406.43l192.96-33.19v334.05Z"/>
        <path class="cls-2" d="m3787.99,684.47c16.58,0,35.6,1.05,57.03,3.13,21.44,2.08,42.52,4.83,63.29,8.28,20.76,3.45,39.77,6.93,57.06,10.38s30.09,6.58,38.4,9.33l-33.19,168.05c-15.23-5.5-40.47-12.08-75.74-19.69-35.27-7.6-80.57-11.43-135.88-11.43-35.97,0-71.59,3.83-106.86,11.43-35.27,7.6-58.46,12.78-69.52,15.53v906.71h-192.94V752.93c45.63-16.58,102.34-32.14,170.12-46.68,67.76-14.51,143.83-21.79,228.23-21.79Z"/>
        <path class="cls-2" d="m4539.03,680.31c77.45,0,142.81,10.03,196.06,30.09,53.26,20.06,96.13,48.4,128.65,85.05,32.49,36.67,55.66,80.25,69.49,130.73,13.83,50.48,20.76,106.16,20.76,167.02v674.32c-16.61,2.75-39.77,6.55-69.52,11.41-29.74,4.85-63.29,9.33-100.63,13.48-37.35,4.15-77.8,7.95-121.37,11.41-43.58,3.45-86.8,5.18-129.68,5.18-60.86,0-116.87-6.23-168.05-18.66-51.18-12.46-95.46-32.17-132.8-59.13-37.35-26.97-66.39-62.56-87.13-106.84-20.76-44.28-31.12-97.53-31.12-159.77s12.08-110.66,36.3-153.54c24.21-42.88,57.06-77.45,98.56-103.74,41.47-26.27,89.9-45.63,145.24-58.08,55.33-12.46,113.42-18.69,174.28-18.69,19.36,0,39.42,1.05,60.19,3.13,20.74,2.08,40.45,4.83,59.11,8.28,18.66,3.45,34.92,6.58,48.75,9.33,13.83,2.78,23.51,4.85,29.07,6.23v-53.96c0-31.79-3.48-63.26-10.38-94.38-6.9-31.12-19.36-58.78-37.35-83-17.99-24.21-42.52-43.58-73.64-58.11-31.12-14.51-71.59-21.79-121.37-21.79-63.64,0-119.32,4.5-167.05,13.51-47.73,9.01-83.32,18.34-106.84,27.99l-22.81-159.74c24.89-11.06,66.39-21.79,124.47-32.17,58.08-10.36,121.02-15.56,188.81-15.56Zm16.61,966.87c45.63,0,86.1-1.03,121.37-3.1,35.27-2.08,64.66-5.88,88.18-11.43v-321.59c-13.83-6.9-36.32-12.78-67.44-17.64-31.12-4.85-68.82-7.28-113.07-7.28-29.07,0-59.84,2.08-92.33,6.23-32.52,4.15-62.26,12.81-89.23,25.94-26.97,13.16-49.45,31.14-67.44,53.96-17.99,22.81-26.97,52.91-26.97,90.25,0,69.17,22.11,117.24,66.39,144.21,44.28,26.97,104.44,40.45,180.53,40.45Z"/>
        <path class="cls-2" d="m5368.94,512.24c-34.6,0-63.99-11.41-88.2-34.22-24.21-22.81-36.3-53.61-36.3-92.33s12.08-69.52,36.3-92.33,53.61-34.25,88.2-34.25,63.96,11.43,88.18,34.25c24.21,22.81,36.32,53.61,36.32,92.33s-12.11,69.52-36.32,92.33c-24.21,22.81-53.61,34.22-88.18,34.22Zm97.51,1273.95h-192.94V707.28h192.94v1078.91Z"/>
        <path class="cls-2" d="m5798.42,738.4c44.25-11.06,103.04-22.79,176.35-35.25,73.29-12.46,157.67-18.69,253.12-18.69,85.75,0,156.97,12.11,213.7,36.32,56.71,24.21,102.01,58.08,135.9,101.66,33.87,43.58,57.73,95.78,71.57,156.64,13.83,60.86,20.76,127.95,20.76,201.24v605.86h-192.96v-564.36c0-66.39-4.5-123.1-13.48-170.12-9.01-47.03-23.86-85.05-44.6-114.12-20.76-29.04-48.43-50.13-83-63.29-34.6-13.13-77.47-19.71-128.65-19.71-20.76,0-42.2.7-64.31,2.08-22.14,1.4-43.23,3.13-63.29,5.2s-38.02,4.5-53.93,7.25c-15.91,2.78-27.34,4.85-34.25,6.23v910.83h-192.94V738.4Z"/>
      </g>
    </g>
  </g>
</svg>