<?xml version="1.0" standalone="no"?>
<!DOCTYPE svg PUBLIC "-//W3C//DTD SVG 20010904//EN"
 "http://www.w3.org/TR/2001/REC-SVG-20010904/DTD/svg10.dtd">
<svg version="1.0" xmlns="http://www.w3.org/2000/svg"
 width="256.000000pt" height="256.000000pt" viewBox="0 0 256.000000 256.000000"
 preserveAspectRatio="xMidYMid meet">

<g transform="translate(0.000000,256.000000) scale(0.100000,-0.100000)"
fill="#000000" stroke="none">
<path d="M194 1945 c-130 -203 -202 -474 -191 -715 16 -339 149 -634 391 -868
348 -336 829 -444 1291 -291 92 31 242 105 289 143 l27 21 -109 108 -108 108
-87 -41 c-149 -70 -217 -84 -412 -84 -143 0 -182 4 -247 22 -336 93 -597 354
-690 690 -18 65 -22 104 -22 247 0 195 14 263 84 412 l41 87 -110 110 -109
109 -38 -58z"/>
<path d="M1002 1370 c-102 -37 -166 -92 -206 -179 -28 -62 -29 -212 -3 -288
23 -66 94 -146 158 -179 92 -46 168 -58 364 -58 172 1 244 8 418 46 l47 10 0
56 0 57 -147 118 c-107 86 -148 115 -154 105 -5 -7 -9 -41 -9 -75 l0 -63 -117
0 c-65 0 -135 5 -157 11 -76 21 -112 95 -85 173 17 50 72 83 154 94 l57 7
-116 93 c-64 50 -124 92 -133 92 -10 -1 -42 -9 -71 -20z"/>
</g>
</svg>
