<svg version="1.2" xmlns="http://www.w3.org/2000/svg" viewBox="0 0 5334 5334" width="5334" height="5334">
	<title>Logo-svg</title>
	<defs>
		<linearGradient id="g1" x2="1" gradientUnits="userSpaceOnUse" gradientTransform="matrix(3594.083,-3584.459,3584.459,3594.083,1070.303,4259.422)">
			<stop offset="0" stop-color="#570df8"/>
			<stop offset=".01" stop-color="#570df8"/>
			<stop offset=".374" stop-color="#1dcdbc"/>
			<stop offset="1" stop-color="#1dcdbc"/>
		</linearGradient>
		<linearGradient id="g2" x2="1" gradientUnits="userSpaceOnUse" gradientTransform="matrix(1269.912,-1574.48,1733.917,1398.508,2240.554,3329.485)">
			<stop offset="0" stop-color="#570df8"/>
			<stop offset=".01" stop-color="#570df8"/>
			<stop offset=".374" stop-color="#1dcdbc"/>
			<stop offset="1" stop-color="#1dcdbc"/>
		</linearGradient>
	</defs>
	<style>
		.s0 { fill: url(#g1) } 
		.s1 { fill: url(#g2) } 
	</style>
	<g id="g8">
		<g id="g10">
			<g id="g12">
				<g id="g18">
					<g id="g20">
					</g>
				</g>
			</g>
		</g>
		<g id="g34">
			<g id="g36">
				<g id="g42">
					<g id="g44">
						<g id="Ordner 1">
							<path id="path32" fill-rule="evenodd" class="s0" d="m129 2667c0 1401.7 1136.3 2538 2538 2538 1401.7 0 2538-1136.3 2538-2538 0-1401.7-1136.3-2538-2538-2538-1401.7 0-2538 1136.3-2538 2538zm634.5 0c0-1051.3 852.2-1903.5 1903.5-1903.5 1051.3 0 1903.5 852.2 1903.5 1903.5 0 1051.3-852.2 1903.5-1903.5 1903.5-1051.3 0-1903.5-852.2-1903.5-1903.5z"/>
							<path id="path56" fill-rule="evenodd" class="s1" d="m2426.3 1449.2c-75.9 7.5-148.1 16.4-216.5 26.8-68.5 10.5-131.8 22.4-189.7 35.8-58.1 13.3-106.4 26-145.1 37.8l84.8 536.2c80.2-29.7 175.3-52.7 285.3-69.1q165-24.6 334.5-24.6 254.1 0 356.7 102.9c68.3 68.5 102.5 159.4 102.5 272.6v62.6c-41.6-11.9-95.9-21.6-162.8-29.1-66.9-7.4-143.6-11.1-229.8-11.1-127.9 0-251.4 12.6-370.4 37.9q-178.5 37.9-316.8 122.5c-92.2 56.5-165.8 132.2-220.8 227.2-55.1 95.1-82.6 210.9-82.6 347.5 0 142.6 23.8 262.9 71.4 360.9 47.7 98.1 116.1 177.5 205.5 238.4q133.9 91.3 319.2 131.4 185.3 40.1 413.1 40.1c241.1 0 446.5-14.2 616.2-42.3q254.5-42.4 397.4-73.7v-1382.8c0-145.7-16.4-278-49.1-397-32.8-118.9-88.5-220-167.4-303.3-78.9-83.3-183.8-147.2-314.7-191.8q-196.4-66.9-491-66.9-116.1 0-229.9 11.1zm-4.2 1873.6c-69.8-39.9-104.6-111.8-104.6-215.5q0-80 35.6-133.4 35.5-53.3 97.9-84.4c41.6-20.7 89.8-34.8 144.8-42.2q82.3-11.1 175.8-11.1c44.5 0 93.5 3 147 8.9 53.4 6 93.5 11.9 120.2 17.9v501.9c-35.6 6-83.1 10.4-142.5 13.4-59.4 3-121.7 4.5-187 4.5-121.7 0-217.5-20-287.2-60z"/>
						</g>
					</g>
				</g>
			</g>
		</g>
	</g>
</svg>